<svg height="496pt" viewBox="0 0 496 496" width="496pt" xmlns="http://www.w3.org/2000/svg" xmlns:xlink="http://www.w3.org/1999/xlink"><linearGradient id="a" gradientUnits="userSpaceOnUse" x1="248" x2="248" y1="496" y2="0"><stop offset="0" stop-color="#9f2fff"/><stop offset="1" stop-color="#0bb1d3"/></linearGradient><path d="m376 288c-22.054688 0-40-17.945312-40-40h16c0 13.230469 10.769531 24 24 24s24-10.769531 24-24h16c0 22.054688-17.945312 40-40 40zm8-187.054688v127.742188l18.34375-18.34375 11.3125 11.3125-37.65625 37.65625-37.65625-37.65625 11.3125-11.3125 18.34375 18.34375v-127.742188l-32-16v-84.945312l40 30 40-30v84.945312zm16-68.945312-16 12v39.054688l16-8zm-32 51.054688v-39.054688l-16-12v43.054688zm-13.28125 96.144531-4.71875-15.289063c-37.089844 11.457032-62 45.25-62 84.089844 0 48.519531 39.480469 88 88 88s88-39.480469 88-88c0-38.839844-24.910156-72.632812-62-84.089844l-4.71875 15.289063c30.335938 9.375 50.71875 37.015625 50.71875 68.800781 0 39.695312-32.304688 72-72 72s-72-32.304688-72-72c0-31.785156 20.382812-59.425781 50.71875-68.800781zm141.28125 68.800781c0 66.167969-53.832031 120-120 120-63.464844 0-115.449219-49.558594-119.59375-112h-48.40625v192h-80v48h-128v-112h128v48h64v-176h-64v48h-128v-112h128v48h64v-176h-64v48h-128v-112h128v48h80v192h48.351562c3.578126-52.71875 42.046876-97.976562 94.214844-109.246094l3.386719 15.636719c-47.488281 10.265625-81.953125 52.992187-81.953125 101.609375 0 57.34375 46.65625 104 104 104s104-46.65625 104-104c0-48.617188-34.464844-91.34375-81.953125-101.609375l3.386719-15.636719c54.789062 11.839844 94.566406 61.148438 94.566406 117.246094zm-384-232h-96v80h96zm0 192h-96v80h96zm0 192h-96v80h96zm-16-176h-64v16h64zm-24 48h16v-16h-16zm-32 0h16v-16h-16zm56-240h-64v16h64zm-24 48h16v-16h-16zm-32 0h16v-16h-16zm56 336h-64v16h64zm-24 48h16v-16h-16zm-32 0h16v-16h-16zm0 0" fill="url(#a)"/></svg>